<?xml version="1.0" encoding="UTF-8"?>
<svg width="752pt" height="752pt" version="1.1" viewBox="0 0 752 752" xmlns="http://www.w3.org/2000/svg">
 <g>
  <rect width="752" height="752" fill="#fff"/>
  <path d="m172.34 312.13h220.09v-33.27c0-6.8633 3.5469-13.004 9.4844-16.434 5.9453-3.4297 13.031-3.4297 18.973 0l168.26 97.141c5.9414 3.4297 9.4883 9.5781 9.4883 16.434 0 6.8594-3.5469 13.004-9.4844 16.434l-168.25 97.141c-2.9688 1.7148-6.2266 2.5703-9.4922 2.5703-3.2578 0-6.5117-0.85547-9.4844-2.5703-5.9375-3.4297-9.4844-9.5703-9.4844-16.434v-33.27h-220.09c-10.461 0-18.977-8.5117-18.977-18.973l-0.003906-89.793c-0.003907-10.461 8.5117-18.977 18.973-18.977zm0 108.8h229.56c5.2266 0 9.4727 4.2422 9.4727 9.4727l0.046875 42.77 168.25-97.199-168.3-97.168v42.797c0 5.2266-4.2422 9.4727-9.4727 9.4727l-229.59 0.027343z"/>
 </g>
</svg>
