<svg xmlns="http://www.w3.org/2000/svg" viewBox="0 0 292.02 104.74"><defs><style>.cls-1{fill-rule:evenodd;}</style></defs><title>Asset 1-logo</title><g id="Layer_2" data-name="Layer 2"><g id="Layer_1-2" data-name="Layer 1"><path class="cls-1" d="M48.11,51.4c8-2.15,19.33-7.73,19.33-21.33,0-6.59-2.87-12.89-8-16.32C55,10.6,48.68,8.88,37.94,8.88H1.15v4c11.45.86,12,1.71,12,13.6v57.7c0,12-.86,12.88-13.17,13.74v4H31.64c11.31,0,20.76-1.72,28.06-5.73,8.45-4.72,13.75-12,13.75-21.61,0-14.32-11.17-20.62-25.34-22.77ZM257,101.94H225.09V98.22c9-.86,10.31-1.72,10.31-11.17V19.33c0-9.74-.86-10.17-9.88-10.88V5a110.23,110.23,0,0,0,21.19-5V66.58h2.73c5.83,0,9.62-.5,12.48-2.79,4.46-3.43,6.29-7.37,6.29-13.55,0-7.52-2.91-12.16-7.22-14.64l.5-1.13L268.73,32a23.61,23.61,0,0,1,2.57,1.45c4.58,3,7.56,8.13,7.56,15,0,9.85-6.07,15.92-14.54,19.58,1.95,3.78,6.75,11.45,10.19,16.6,4.12,6,6.41,8.93,9.27,11.91a16.34,16.34,0,0,0,8.24,5.38l-.21,1.39c-.85,1-1.84,1.46-3.91,1.48h-.34c-8.68-.45-15.48-3-20.63-10.42-4-5.61-8.13-12.71-11.56-18.32-2-3.2-4.22-4.57-7.77-4.57h-.89V87.05c0,9.45,1.14,10.31,10.31,11.17ZM140,21.26c.06-.17-.23-.43-.59-.43a.32.32,0,0,0-.3.13,7.94,7.94,0,0,1-6.71,4.47h-3.58a1.73,1.73,0,0,1-1.91-1.94V15.41h4.15c1.71,0,2.66.42,3,3.61,0,.13.2.27.46.27s.46-.14.46-.27c0-1.64-.19-2.53-.19-4.07s.19-2.4.19-4c0-.16-.23-.26-.46-.26s-.46.1-.46.26c-.39,3.19-1.34,3.45-3,3.45H126.9V7a1.75,1.75,0,0,1,1.91-2h3.32a5,5,0,0,1,5.2,3.88.37.37,0,0,0,.36.23c.36,0,.62-.16.56-.39a32,32,0,0,1-1.09-5c-2.07.1-6.31.2-8.51.2s-6.41-.1-8.48-.2c-.17,0-.27.23-.27.46s.1.46.27.46c3.18.4,3.38,1.09,3.38,2.8V23c0,1.68-.2,2.4-3.38,2.76-.17,0-.27.2-.27.46s.1.46.27.46c2.07-.06,6.64-.2,8.81-.2s6.77.14,8.84.2A41.37,41.37,0,0,1,140,21.26Zm12,1.18c0-4-7.23-4.11-7.23-7.17,0-1.41.79-2.23,2.56-2.23A2.84,2.84,0,0,1,150,15.73c0,.17.22.27.46.27s.49-.13.46-.27c-.1-1-.17-2.13-.2-3.28-.66,0-2.07-.46-3.52-.46-2.63,0-5,1.84-5,4.2,0,4.84,7.1,4.15,7.1,7.37a2.36,2.36,0,0,1-2.6,2.56,4.46,4.46,0,0,1-3.81-3c0-.17-.23-.27-.46-.27s-.49.14-.46.27c.17.85.46,2.33.59,3.48,1,0,2.67.59,4.11.59C149.51,27.17,152,25.2,152,22.44Zm11.9-8.84c0-.5-.17-.89-.43-.89h-4.83l.13-3.16c0-.13-.23-.26-.46-.26a.53.53,0,0,0-.46.26,13.3,13.3,0,0,1-4,3.82.63.63,0,0,0-.3.49.41.41,0,0,0,.36.43h1.25a.42.42,0,0,1,.4.46l-.07,8a3.9,3.9,0,0,0,4.11,4.3,5.58,5.58,0,0,0,3.82-1.44.57.57,0,0,0,.16-.37c0-.29-.23-.62-.4-.52a4.28,4.28,0,0,1-2.43.62c-1.54,0-2.2-1-2.2-3.09V14.35l4.9.13C163.74,14.48,163.91,14.12,163.91,13.6Zm10.14,6-.13,4.4a3.37,3.37,0,0,1-2.86,1.51c-1.15,0-1.81-.85-1.81-2.33C169.25,21.16,171.59,20.21,174.05,19.65Zm5.72,5.58c0-.39-.33-.69-.49-.55a2,2,0,0,1-1.28.65c-.5,0-1.15-.26-1.12-1.84l.23-7.43a3.7,3.7,0,0,0-4-4.07c-2.53,0-6.57,2.3-6.57,4a1.11,1.11,0,0,0,1.18,1.15c1,0,1.94-.69,2-2.23,0-1,1.16-1.65,2.34-1.65s2.17,1,2.14,2.66l-.1,2.57c-2.14.56-8,2.17-8,5.46a3.17,3.17,0,0,0,3.35,3.18,6.37,6.37,0,0,0,4.6-1.8A2.56,2.56,0,0,0,176.59,27a3.93,3.93,0,0,0,3-1.51A.46.46,0,0,0,179.77,25.23ZM190.35,13.6c0-.5-.16-.89-.43-.89h-4.83l.13-3.16c0-.13-.23-.26-.46-.26a.56.56,0,0,0-.46.26,13.3,13.3,0,0,1-4,3.82.62.62,0,0,0-.29.49.4.4,0,0,0,.36.43h1.25a.41.41,0,0,1,.39.46l-.06,8a3.89,3.89,0,0,0,4.11,4.3,5.57,5.57,0,0,0,3.81-1.44.52.52,0,0,0,.16-.37c0-.29-.23-.62-.39-.52a4.28,4.28,0,0,1-2.43.62c-1.55,0-2.21-1-2.21-3.09V14.35l4.9.13C190.19,14.48,190.35,14.12,190.35,13.6Zm15,3.75a5.82,5.82,0,0,0-6-5.36c-4.34,0-7,3.71-7,7.69,0,4.17,3,7.49,7,7.49a7.23,7.23,0,0,0,5.82-3.41.43.43,0,0,0,.1-.27c0-.46-.4-.72-.5-.56a5.73,5.73,0,0,1-4.27,2.21c-2.92,0-4.83-1.81-4.83-5.49a16,16,0,0,1,.1-1.85h9C205.07,17.8,205.3,17.64,205.3,17.35Zm-3-1.45c0,.53-.27.82-1.91.85l-4.57.13c.39-2.07,1.61-3.84,3.45-3.84A2.83,2.83,0,0,1,202.31,15.9Zm19,66.11c-5.42,7.21-9.78,9.72-15.84,10.79-7.89,1.39-22.2-1.59-25.66-21.19C177.17,56.8,184,47.6,193.29,46a20.79,20.79,0,0,1,15.12,3.3c1.46.9,2.25,1.2,3,1.08,1.55-.28,4.11-3.92,3.58-6.89-.27-1.55-.92-2.74-3-4-2.58-1.43-7.56-2.45-13.2-1.45s-13.67,4.63-20,11.56c-8.16,9-11.26,18.22-9.34,29.07,2.66,15.09,15.63,27.63,33.39,24.5,8.32-1.47,16.67-9.34,21.44-18.61ZM166.4,96.36,165,92.63a10.83,10.83,0,0,1-5.15,1.58c-2.44,0-5-2.15-5-8.59V59c0-7.45-1.44-13.32-6.45-17.47a18.64,18.64,0,0,0-11.74-3.86c-8.16,1.57-17.47,7.15-21.47,10-2.72,2-4.58,3.58-4.58,5.72,0,3.3,3.72,6.16,6.3,6.16A4,4,0,0,0,121,56.12c1.14-4.29,2.43-7.44,4.29-9.3A8.06,8.06,0,0,1,131.75,44c7.16,0,12,5.87,12,16.17v2.58c-3.15,2.58-13.6,6.44-22.19,9.31-7.87,2.72-11.6,7.16-11.6,14.17a17.29,17.29,0,0,0,17.18,17.47c4.3,0,11.17-5.3,16.9-9.17a14.84,14.84,0,0,0,3.43,6.45,11.73,11.73,0,0,0,6.73,2.72Zm-22.62-6.45c-2.72,2.58-7.73,5-11.45,5.16-4.44,0-10.17-3.58-10.17-11,0-5.15,3.15-7.87,8.74-10.45,3-1.43,9.87-4.44,12.88-6Zm-37.63,12V98.22C97,97.36,95.84,96.5,95.84,87.05V0A110.23,110.23,0,0,1,74.65,5V8.45c9,.71,9.88,1.14,9.88,10.88V87.05c0,9.45-1.29,10.31-10.31,11.17v3.72ZM25.2,54.84h6.58c17.47,0,27.49,6.44,27.49,21.19s-10.45,20.9-22.19,21c-9.16,0-11.88-2.72-11.88-13Zm0-4.73V22.05c0-4.73.57-6.3,1.86-7.16s4.58-1.43,8.16-1.43c13.6,0,19,8.59,19,18.32,0,12-6.58,18.33-22.33,18.33Z"/></g></g></svg>