<?xml version="1.0" encoding="UTF-8"?>
<svg width="752pt" height="752pt" version="1.1" viewBox="0 0 752 752" xmlns="http://www.w3.org/2000/svg">
 <g fill="#fff">
  <path d="m376 202.67c46.41 0 89.98 17.996 122.66 50.672s50.672 76.246 50.672 122.66c0 95.664-77.668 173.33-173.33 173.33-46.41 0-89.98-17.996-122.66-50.672-32.676-32.68-50.672-76.246-50.672-122.66 0-95.66 77.668-173.33 173.33-173.33zm-116.03 289.36c31.254 30.785 72.457 47.832 116.03 47.832 90.453 0 163.86-73.406 163.86-163.86 0-43.57-17.051-84.77-47.832-116.03-30.785-31.254-72.461-47.832-116.03-47.832-90.453 0-163.86 73.406-163.86 163.86 0 43.57 17.047 84.773 47.832 116.03z"/>
  <path d="m355.16 304.02c-0.94531-0.94531-1.4219-1.8945-1.4219-3.3164s0.47266-2.3672 1.4219-3.3164l28.887-28.887c1.8945-1.8945 4.7344-1.8945 6.6289 0l104.19 104.19c0.94531 0.94531 1.4219 1.8945 1.4219 3.3164s-0.47266 2.3672-1.4219 3.3164l-104.19 104.19c-0.94531 0.94531-2.3672 1.4219-3.3164 1.4219-0.94531 0-2.3672-0.47266-3.3164-1.4219l-28.887-28.887c-0.94531-0.94531-1.4219-1.8945-1.4219-3.3164s0.47266-2.3672 1.4219-3.3164l49.258-48.777h-143.97c-2.8398 0-4.7344-1.8945-4.7344-4.7344v-36.938c0-2.8398 1.8945-4.7344 4.7344-4.7344l143.97-0.003906zm-90.453 58.25v27.469h151.07c1.8945 0 3.7891 0.94531 4.2617 2.8398 0.94531 1.8945 0.47266 3.7891-0.94531 5.2109l-53.988 53.988 22.258 22.258 97.555-98.031-97.559-97.559-22.258 22.258 53.988 53.516c1.4219 1.4219 1.8945 3.3164 0.94531 5.2109-0.94531 1.8945-2.3672 2.8398-4.2617 2.8398z"/>
 </g>
</svg>
